<?xml version="1.0" encoding="UTF-8"?>
<svg width="450.89" height="206.85" version="1.1" viewBox="0 0 450.89 206.85" xml:space="preserve" xmlns="http://www.w3.org/2000/svg" xmlns:cc="http://creativecommons.org/ns#" xmlns:dc="http://purl.org/dc/elements/1.1/" xmlns:rdf="http://www.w3.org/1999/02/22-rdf-syntax-ns#"><metadata><rdf:RDF><cc:Work rdf:about=""><dc:format>image/svg+xml</dc:format><dc:type rdf:resource="http://purl.org/dc/dcmitype/StillImage"/><dc:title/></cc:Work></rdf:RDF></metadata><defs><clipPath id="clipPath872"><path d="m0 0h3381.7v1551.4h-3381.7z"/></clipPath></defs><g transform="matrix(1.3333 0 0 -1.3333 0 206.85)"><g transform="scale(.1)"><g clip-path="url(#clipPath872)"><g fill="#fff"><path d="m-0.0039062 1177.5h134.03v-731.07h220.55v-121.85h-354.58v852.92"/><path d="m547.09 818.04h183.98v-121.85h-183.98v-249.78h231.5v-121.85h-365.54v852.92h365.54v-121.84h-231.5v-237.6"/><path d="m1063.7 481.74 102.35 695.74h123.06l-131.58-852.92h-199.84l-131.59 852.92h135.24l102.35-695.74"/><path d="m1472.1 818.04h183.99v-121.85h-183.99v-249.78h231.51v-121.85h-365.53v852.92h365.53v-121.84h-231.51v-237.6"/><path d="m1766.7 1177.5h134.03v-731.07h220.55v-121.85h-354.58v852.92"/></g><g fill="#f1621a"><path d="m2419 462.34c120.3 227.26 181.27 406.89 181.27 517.38 0 121.92-72.06 200.69-183.57 200.69-84.83 0-135.36-46.74-172.27-80.86l-7.86-7.27 91.05-113.11 9 9.422c33.02 34.59 48.62 49.88 72.46 49.88 17.82 0 47.98-12.7 47.98-60.271 0-71.84-40.43-180.99-57.69-223.99l-2.54-6.336c-55.55-150.28-123.07-303.78-180.6-410.57l-9.1-16.903h356.53l45.41 141.94h-190.07"/><path d="m2828.9 1038.5h-201.86l25.22 141.9h358.69l-167.64-860.01h-155.01l140.6 718.11"/><path d="m2606 1551.4c-217.73 0-414.48-89.75-555.37-234.22l59.61-73.45c124.44 131.75 300.66 214.1 495.76 214.1 376.14 0 682.13-306 682.13-682.13 0-376.13-305.99-682.13-682.13-682.13-39.62 0-78.44 3.4297-116.23 9.9497l-29.9-89.719c47.33-9.0196 96.17-13.801 146.13-13.801 428.41 0 775.71 347.29 775.71 775.7 0 428.41-347.3 775.7-775.71 775.7"/></g></g></g></g></svg>
