<?xml version="1.0" encoding="UTF-8"?>
<svg width="338.3" height="155.1" version="1.1" viewBox="0 0 338.3 155.1" xml:space="preserve" xmlns="http://www.w3.org/2000/svg" xmlns:cc="http://creativecommons.org/ns#" xmlns:dc="http://purl.org/dc/elements/1.1/" xmlns:rdf="http://www.w3.org/1999/02/22-rdf-syntax-ns#"><metadata><rdf:RDF><cc:Work rdf:about=""><dc:format>image/svg+xml</dc:format><dc:type rdf:resource="http://purl.org/dc/dcmitype/StillImage"/><dc:title/></cc:Work></rdf:RDF></metadata>
<style type="text/css">
	.st0{fill:#010101;}
	.st1{fill:#EF7525;}
</style>
<g transform="translate(-154.8,-154.8)">
	<path class="st0" d="m154.8 192.2h13.4v73.1h22.1v12.2h-35.5z"/>
	<path class="st0" d="m209.5 228.1h18.4v12.2h-18.4v25h23.2v12.2h-36.6v-85.3h36.6v12.2h-23.2z"/>
	<path class="st0" d="m261.2 261.7 10.2-69.6h12.3l-13.2 85.3h-20l-13.2-85.3h13.5z"/>
	<path class="st0" d="m302 228.1h18.4v12.2h-18.4v25h23.2v12.2h-36.6v-85.3h36.6v12.2h-23.2z"/>
	<path class="st0" d="m331.5 192.2h13.4v73.1h22.1v12.2h-35.5z"/>
	
		<path class="st1" d="m396.7 263.7c12-22.7 18.1-40.7 18.1-51.7 0-12.2-7.2-20.1-18.4-20.1-8.5 0-13.5 4.7-17.2 8.1l-0.8 0.7 9.1 11.3 0.9-0.9c3.3-3.5 4.9-5 7.2-5 1.8 0 4.8 1.3 4.8 6 0 7.2-4 18.1-5.8 22.4l-0.3 0.6c-5.6 15-12.3 30.4-18.1 41.1l-0.9 1.7h35.7l4.5-14.2z"/>
		<polygon class="st1" points="439.1 277.9 423.6 277.9 437.7 206.1 417.5 206.1 420 191.9 455.9 191.9"/>
	
	<path class="st1" d="m415.4 154.8c-21.8 0-41.4 9-55.5 23.4l6 7.3c12.4-13.2 30.1-21.4 49.6-21.4 37.6 0 68.2 30.6 68.2 68.2s-30.6 68.2-68.2 68.2c-4 0-7.8-0.3-11.6-1l-3 9c4.7 0.9 9.6 1.4 14.6 1.4 42.8 0 77.6-34.7 77.6-77.6s-34.9-77.5-77.7-77.5z"/>
</g>
</svg>
